<mxfile host="app.diagrams.net" modified="2020-08-07T20:37:46.333Z" agent="5.0 (Windows)" etag="1fM2rbQqOtWP4oJnYicM" version="13.6.1" type="github">
  <diagram id="6a731a19-8d31-9384-78a2-239565b7b9f0" name="Page-1">
    <mxGraphModel dx="2574" dy="1395" grid="1" gridSize="10" guides="1" tooltips="1" connect="1" arrows="1" fold="1" page="1" pageScale="1" pageWidth="827" pageHeight="1169" background="#ffffff" math="0" shadow="0">
      <root>
        <mxCell id="0" />
        <mxCell id="1" parent="0" />
        <mxCell id="2" value="default" style="shape=mxgraph.flowchart.terminator;strokeWidth=2;gradientColor=none;gradientDirection=north;fontStyle=0;html=1;" parent="1" vertex="1">
          <mxGeometry x="80" y="40" width="80" height="40" as="geometry" />
        </mxCell>
        <mxCell id="7-kNVx0crShXXq4Z1L49-63" value="" style="group" vertex="1" connectable="0" parent="1">
          <mxGeometry x="80" y="120" width="80" height="40" as="geometry" />
        </mxCell>
        <mxCell id="7-kNVx0crShXXq4Z1L49-61" value="" style="rounded=1;whiteSpace=wrap;html=1;absoluteArcSize=1;arcSize=14;strokeWidth=2;" vertex="1" parent="7-kNVx0crShXXq4Z1L49-63">
          <mxGeometry width="80" height="40" as="geometry" />
        </mxCell>
        <mxCell id="7-kNVx0crShXXq4Z1L49-57" value="&lt;div&gt;init globals&lt;br&gt;&lt;/div&gt;" style="text;html=1;strokeColor=none;fillColor=none;align=center;verticalAlign=middle;whiteSpace=wrap;rounded=0;" vertex="1" parent="7-kNVx0crShXXq4Z1L49-63">
          <mxGeometry x="24" y="16" width="32" height="8" as="geometry" />
        </mxCell>
        <mxCell id="7-kNVx0crShXXq4Z1L49-64" value="" style="endArrow=classic;html=1;exitX=0.5;exitY=1;exitDx=0;exitDy=0;exitPerimeter=0;entryX=0.5;entryY=0;entryDx=0;entryDy=0;" edge="1" parent="1" source="2" target="7-kNVx0crShXXq4Z1L49-61">
          <mxGeometry width="50" height="50" relative="1" as="geometry">
            <mxPoint x="980" y="720" as="sourcePoint" />
            <mxPoint x="1030" y="670" as="targetPoint" />
          </mxGeometry>
        </mxCell>
        <mxCell id="7-kNVx0crShXXq4Z1L49-65" value="" style="endArrow=classic;html=1;exitX=0.5;exitY=1;exitDx=0;exitDy=0;entryX=0.5;entryY=0;entryDx=0;entryDy=0;" edge="1" parent="1" source="7-kNVx0crShXXq4Z1L49-61" target="7-kNVx0crShXXq4Z1L49-60">
          <mxGeometry width="50" height="50" relative="1" as="geometry">
            <mxPoint x="980" y="720" as="sourcePoint" />
            <mxPoint x="1030" y="670" as="targetPoint" />
          </mxGeometry>
        </mxCell>
        <mxCell id="7-kNVx0crShXXq4Z1L49-66" value="" style="group" vertex="1" connectable="0" parent="1">
          <mxGeometry x="60" y="320" width="120" height="80" as="geometry" />
        </mxCell>
        <mxCell id="7-kNVx0crShXXq4Z1L49-59" value="" style="group" vertex="1" connectable="0" parent="7-kNVx0crShXXq4Z1L49-66">
          <mxGeometry width="120" height="80" as="geometry" />
        </mxCell>
        <mxCell id="7-kNVx0crShXXq4Z1L49-56" value="" style="shape=hexagon;perimeter=hexagonPerimeter2;whiteSpace=wrap;html=1;fixedSize=1;" vertex="1" parent="7-kNVx0crShXXq4Z1L49-59">
          <mxGeometry width="120" height="80" as="geometry" />
        </mxCell>
        <mxCell id="7-kNVx0crShXXq4Z1L49-58" value="all modules registered?" style="text;html=1;strokeColor=none;fillColor=none;align=center;verticalAlign=middle;whiteSpace=wrap;rounded=0;" vertex="1" parent="7-kNVx0crShXXq4Z1L49-59">
          <mxGeometry x="40" y="30" width="40" height="20" as="geometry" />
        </mxCell>
        <mxCell id="7-kNVx0crShXXq4Z1L49-68" value="" style="endArrow=classic;html=1;exitX=0.5;exitY=1;exitDx=0;exitDy=0;entryX=0.5;entryY=0;entryDx=0;entryDy=0;" edge="1" parent="1" source="7-kNVx0crShXXq4Z1L49-60" target="7-kNVx0crShXXq4Z1L49-56">
          <mxGeometry width="50" height="50" relative="1" as="geometry">
            <mxPoint x="120" y="160" as="sourcePoint" />
            <mxPoint x="120" y="200" as="targetPoint" />
          </mxGeometry>
        </mxCell>
        <mxCell id="7-kNVx0crShXXq4Z1L49-70" value="" style="group" vertex="1" connectable="0" parent="1">
          <mxGeometry x="160" y="210" width="150" height="60" as="geometry" />
        </mxCell>
        <mxCell id="7-kNVx0crShXXq4Z1L49-67" value="" style="shape=singleArrow;direction=west;whiteSpace=wrap;html=1;" vertex="1" parent="7-kNVx0crShXXq4Z1L49-70">
          <mxGeometry width="100" height="60" as="geometry" />
        </mxCell>
        <mxCell id="7-kNVx0crShXXq4Z1L49-69" value="&lt;div&gt;ready (by modules)&lt;/div&gt;" style="text;html=1;strokeColor=none;fillColor=none;align=center;verticalAlign=middle;whiteSpace=wrap;rounded=0;" vertex="1" parent="7-kNVx0crShXXq4Z1L49-70">
          <mxGeometry x="110" y="20" width="40" height="20" as="geometry" />
        </mxCell>
        <mxCell id="7-kNVx0crShXXq4Z1L49-72" value="" style="group" vertex="1" connectable="0" parent="1">
          <mxGeometry x="80" y="200" width="80" height="80" as="geometry" />
        </mxCell>
        <mxCell id="7-kNVx0crShXXq4Z1L49-60" value="" style="rounded=1;whiteSpace=wrap;html=1;absoluteArcSize=1;arcSize=14;strokeWidth=2;" vertex="1" parent="7-kNVx0crShXXq4Z1L49-72">
          <mxGeometry width="80" height="80" as="geometry" />
        </mxCell>
        <mxCell id="7-kNVx0crShXXq4Z1L49-71" value="register module" style="text;html=1;strokeColor=none;fillColor=none;align=center;verticalAlign=middle;whiteSpace=wrap;rounded=0;" vertex="1" parent="7-kNVx0crShXXq4Z1L49-72">
          <mxGeometry x="20" y="30" width="40" height="20" as="geometry" />
        </mxCell>
        <mxCell id="7-kNVx0crShXXq4Z1L49-73" style="edgeStyle=orthogonalEdgeStyle;rounded=0;orthogonalLoop=1;jettySize=auto;html=1;exitX=0;exitY=0.5;exitDx=0;exitDy=0;entryX=0;entryY=0.5;entryDx=0;entryDy=0;" edge="1" parent="1" source="7-kNVx0crShXXq4Z1L49-56" target="7-kNVx0crShXXq4Z1L49-60">
          <mxGeometry relative="1" as="geometry" />
        </mxCell>
        <mxCell id="7-kNVx0crShXXq4Z1L49-75" style="edgeStyle=orthogonalEdgeStyle;rounded=0;orthogonalLoop=1;jettySize=auto;html=1;exitX=0.5;exitY=1;exitDx=0;exitDy=0;entryX=0.5;entryY=0;entryDx=0;entryDy=0;entryPerimeter=0;" edge="1" parent="1" source="7-kNVx0crShXXq4Z1L49-56">
          <mxGeometry relative="1" as="geometry">
            <mxPoint x="120" y="440" as="targetPoint" />
          </mxGeometry>
        </mxCell>
        <mxCell id="7-kNVx0crShXXq4Z1L49-76" value="&lt;h1&gt;Main&lt;/h1&gt;&lt;p&gt;Main module:&lt;br&gt;* user interface&lt;br&gt;* modules interface&lt;br&gt;* management&lt;br&gt;&lt;/p&gt;" style="text;html=1;strokeColor=none;fillColor=none;spacing=5;spacingTop=-20;whiteSpace=wrap;overflow=hidden;rounded=0;" vertex="1" parent="1">
          <mxGeometry x="200" y="10" width="190" height="120" as="geometry" />
        </mxCell>
        <mxCell id="7-kNVx0crShXXq4Z1L49-77" value="work" style="shape=offPageConnector;whiteSpace=wrap;html=1;" vertex="1" parent="1">
          <mxGeometry x="100" y="440" width="40" height="40" as="geometry" />
        </mxCell>
        <mxCell id="7-kNVx0crShXXq4Z1L49-78" value="work" style="shape=mxgraph.flowchart.terminator;strokeWidth=2;gradientColor=none;gradientDirection=north;fontStyle=0;html=1;" vertex="1" parent="1">
          <mxGeometry x="480" y="40" width="80" height="40" as="geometry" />
        </mxCell>
      </root>
    </mxGraphModel>
  </diagram>
</mxfile>
